<svg xmlns="http://www.w3.org/2000/svg" xmlns:cc="http://web.resource.org/cc/" xmlns:svg="http://www.w3.org/2000/svg" id="svg1307" width="32" height="32"><metadata id="metadata1312"/><g id="layer1"><path id="path1315" d="M 21.611383 17.622179 A 10.091266 10.091266 0 1 1 1.4288521,17.622179 A 10.091266 10.091266 0 1 1 21.611383 17.622179 z" transform="matrix(0.991383,0,0,0.991383,-0.920848,-0.970327)" style="fill:#fff;fill-opacity:1;fill-rule:evenodd;stroke:#000;stroke-width:1px;stroke-linecap:butt;stroke-linejoin:miter;stroke-opacity:1"/><path id="path1317" d="M 21.611383 17.622179 A 10.091266 10.091266 0 1 1 1.4288521,17.622179 A 10.091266 10.091266 0 1 1 21.611383 17.622179 z" transform="matrix(0.991383,0,0,0.991383,10.07915,-0.970328)" style="fill:#fff;fill-opacity:1;fill-rule:evenodd;stroke:#000;stroke-width:1px;stroke-linecap:butt;stroke-linejoin:miter;stroke-opacity:1"/><path id="path2236" d="M 16,8.081251 C 13.282516,9.870474 11.500001,12.93037 11.5,16.425 C 11.5,19.91963 13.282516,23.010777 16,24.8 C 18.717484,23.010777 20.499999,19.91963 20.5,16.425 C 20.5,12.93037 18.717484,9.870474 16,8.081251 z" style="fill:#8e2525;fill-opacity:1;fill-rule:evenodd;stroke:#000;stroke-width:1px;stroke-linecap:butt;stroke-linejoin:miter;stroke-opacity:1"/></g></svg>