<svg xmlns="http://www.w3.org/2000/svg" xmlns:cc="http://web.resource.org/cc/" xmlns:svg="http://www.w3.org/2000/svg" xmlns:xlink="http://www.w3.org/1999/xlink" id="svg1307" width="32" height="32"><defs id="defs1309"><linearGradient id="linearGradient2247"><stop style="stop-color:red;stop-opacity:1" id="stop2249" offset="0"/><stop style="stop-color:red;stop-opacity:.43921569" id="stop2251" offset="1"/></linearGradient><linearGradient id="linearGradient2239"><stop style="stop-color:#00f;stop-opacity:1" id="stop2241" offset="0"/><stop style="stop-color:#00f;stop-opacity:.3882353" id="stop2243" offset="1"/></linearGradient><linearGradient id="linearGradient2245" x1="-1.149" x2="19.976" y1="13.836" y2="13.836" gradientUnits="userSpaceOnUse" xlink:href="#linearGradient2239"/></defs><metadata id="metadata1312"/><g id="layer1"><path style="fill:url(#linearGradient2245);fill-opacity:1" id="path2190" d="M 19.975765 13.836195 A 10.562407 8.4410868 0 1 1 -1.1490479,13.836195 A 10.562407 8.4410868 0 1 1 19.975765 13.836195 z" transform="matrix(1.349087,0,0,1.658554,3.425357,-7.948079)"/><path style="fill:red;fill-opacity:1" id="path2194" d="M 19.975765 13.836195 A 10.562407 8.4410868 0 1 1 -1.1490479,13.836195 A 10.562407 8.4410868 0 1 1 19.975765 13.836195 z" transform="matrix(0.337272,0,0,0.414639,16.85721,16.76297)"/><path style="fill:#0f0;fill-opacity:1" id="path2196" d="M 19.975765 13.836195 A 10.562407 8.4410868 0 1 1 -1.1490479,13.836195 A 10.562407 8.4410868 0 1 1 19.975765 13.836195 z" transform="matrix(0.337272,0,0,0.414639,6.387542,10.76297)"/><path style="fill:red;fill-opacity:1" id="path2202" d="M 19.975765 13.836195 A 10.562407 8.4410868 0 1 1 -1.1490479,13.836195 A 10.562407 8.4410868 0 1 1 19.975765 13.836195 z" transform="matrix(0.337272,0,0,0.414639,20.26273,3.762978)"/></g></svg>