<svg xmlns="http://www.w3.org/2000/svg" xmlns:cc="http://web.resource.org/cc/" xmlns:svg="http://www.w3.org/2000/svg" id="svg2343" width="32" height="32"><metadata id="metadata2348"/><g id="layer1"><g id="g2452" transform="matrix(0.901596,0,0,0.901596,4.071909,5.738352)"><path id="path2437" d="M 5.9802582,25.300518 L 21.456902,25.198488 L 25.136663,14.689416 L 24.443312,3.6701963 L 20.158163,0.099151991 L 18.795175,-2.5536232 L 14.746748,-2.6556536 L 13.699269,-4.0840717 L 11.283443,-4.1861005 L 9.4435632,-0.92114754 L 6.0884871,-0.8191171 L 4.6356277,1.2185001 L 4.6337201,7.7394701 L 0.46061562,5.4047024 L -2.4615465,5.5067328 L -2.4615465,8.669657 L 1.2182147,12.138671 L 6.1967143,22.341653 L 5.9802582,25.300518 z" style="fill:none;fill-opacity:.75;fill-rule:evenodd;stroke:#000;stroke-width:1.10914433px;stroke-linecap:butt;stroke-linejoin:miter;stroke-opacity:1"/><path id="path2439" d="M 4.6815197,7.3432694 L 4.5732908,12.444761" style="fill:none;fill-opacity:.75;fill-rule:evenodd;stroke:#000;stroke-width:1.10914433px;stroke-linecap:butt;stroke-linejoin:miter;stroke-opacity:1"/><path id="path2441" d="M 9.7682483,-1.5333253 L 9.570148,8.5951649" style="fill:none;fill-opacity:.75;fill-rule:evenodd;stroke:#000;stroke-width:1.10914433px;stroke-linecap:butt;stroke-linejoin:miter;stroke-opacity:1"/><path id="path2443" d="M 15.071433,-2.2475351 L 15.071433,7.4966738" style="fill:none;fill-opacity:.75;fill-rule:evenodd;stroke:#000;stroke-width:1.10914433px;stroke-linecap:butt;stroke-linejoin:miter;stroke-opacity:1"/><path id="path2445" d="M 20.158162,-0.41099696 L 20.148984,9.2341602" style="fill:none;fill-opacity:.75;fill-rule:evenodd;stroke:#000;stroke-width:1.10914433px;stroke-linecap:butt;stroke-linejoin:miter;stroke-opacity:1"/></g></g></svg>