<svg xmlns="http://www.w3.org/2000/svg" xmlns:cc="http://web.resource.org/cc/" xmlns:svg="http://www.w3.org/2000/svg" id="svg5216" width="32" height="32"><defs id="defs5218"><marker id="Arrow2Lend" orient="auto" refX="0" refY="0" style="overflow:visible"><path id="path5168" d="M 8.7185878,4.0337352 L -2.2072895,0.016013256 L 8.7185884,-4.0017078 C 6.9730900,-1.6296469 6.9831476,1.6157441 8.7185878,4.0337352 z" transform="scale(1.1) rotate(180) translate(-5,0)" style="font-size:12;fill-rule:evenodd;stroke-width:.625;stroke-linejoin:round"/></marker></defs><metadata id="metadata5221"/><g id="layer1"><path style="fill:none;fill-opacity:.75;fill-rule:evenodd;stroke:#000;stroke-width:.23169813px;stroke-linecap:butt;stroke-linejoin:miter;marker-end:url(#Arrow2Lend);stroke-opacity:1" id="path5237" d="M 16.525607,7.2316633 C 16.35141,7.222716 13.564796,10.469572 13.564796,10.469572"/><path style="fill:none;fill-opacity:.75;fill-rule:evenodd;stroke:#000;stroke-width:.23169813px;stroke-linecap:butt;stroke-linejoin:miter;marker-end:url(#Arrow2Lend);stroke-opacity:1" id="path5239" d="M 8.8577805,17.115849 C 8.6869146,17.150912 6.8044874,20.993276 6.8044874,20.993276"/><path style="fill:none;fill-opacity:.75;fill-rule:evenodd;stroke:#000;stroke-width:.21507274px;stroke-linecap:butt;stroke-linejoin:miter;marker-end:url(#Arrow2Lend);stroke-opacity:1" id="path5241" d="M 12.327808,17.107536 C 12.261315,17.253738 14.171307,20.706393 14.171307,20.706393"/><path style="fill:none;fill-opacity:.75;fill-rule:evenodd;stroke:#000;stroke-width:.19168536px;stroke-linecap:butt;stroke-linejoin:miter;marker-end:url(#Arrow2Lend);stroke-opacity:1" id="path5243" d="M 27.628164,17.741431 C 27.489952,17.814259 27.482032,20.742752 27.482032,20.742752"/><path style="fill:none;fill-opacity:.75;fill-rule:evenodd;stroke:#000;stroke-width:.23169813px;stroke-linecap:butt;stroke-linejoin:miter;marker-end:url(#Arrow2Lend);stroke-opacity:1" id="path5245" d="M 21.116054,7.1158491 C 21.08772,7.2879591 24.00328,10.41954 24.00328,10.41954"/><path style="fill:red;fill-opacity:1" id="path2202" d="M 19.975765 13.836195 A 10.562407 8.4410868 0 1 1 -1.1490479,13.836195 A 10.562407 8.4410868 0 1 1 19.975765 13.836195 z" transform="matrix(0.337272,0,0,0.414639,7.262734,8.762978)"/><path style="fill:#00f;fill-opacity:1" id="path2229" d="M 19.975765 13.836195 A 10.562407 8.4410868 0 1 1 -1.1490479,13.836195 A 10.562407 8.4410868 0 1 1 19.975765 13.836195 z" transform="matrix(0.337272,0,0,0.414639,1.387542,19.76298)"/><path style="fill:#0f0;fill-opacity:1" id="path2231" d="M 19.975765 13.836195 A 10.562407 8.4410868 0 1 1 -1.1490479,13.836195 A 10.562407 8.4410868 0 1 1 19.975765 13.836195 z" transform="matrix(0.337272,0,0,0.414639,15.76273,-0.792469)"/><path style="fill:red;fill-opacity:1" id="path5227" d="M 19.975765 13.836195 A 10.562407 8.4410868 0 1 1 -1.1490479,13.836195 A 10.562407 8.4410868 0 1 1 19.975765 13.836195 z" transform="matrix(0.337272,0,0,0.414639,24.26273,8.762978)"/><path style="fill:#00f;fill-opacity:1" id="path5229" d="M 19.975765 13.836195 A 10.562407 8.4410868 0 1 1 -1.1490479,13.836195 A 10.562407 8.4410868 0 1 1 19.975765 13.836195 z" transform="matrix(0.337272,0,0,0.414639,12.82513,19.76297)"/><path style="fill:#00f;fill-opacity:1" id="path5231" d="M 19.975765 13.836195 A 10.562407 8.4410868 0 1 1 -1.1490479,13.836195 A 10.562407 8.4410868 0 1 1 19.975765 13.836195 z" transform="matrix(0.337272,0,0,0.414639,24.26273,19.76297)"/></g></svg>