<svg xmlns="http://www.w3.org/2000/svg" xmlns:cc="http://web.resource.org/cc/" xmlns:svg="http://www.w3.org/2000/svg" xmlns:xlink="http://www.w3.org/1999/xlink" id="svg2281" width="32" height="32"><defs id="defs2283"><linearGradient id="linearGradient2306"><stop style="stop-color:#b28138;stop-opacity:1" id="stop2308" offset="0"/><stop style="stop-color:#ffbc58;stop-opacity:1" id="stop2310" offset="1"/></linearGradient><linearGradient id="linearGradient2296"><stop style="stop-color:#ffd600;stop-opacity:1" id="stop2298" offset="0"/><stop style="stop-color:#a28800;stop-opacity:1" id="stop2300" offset="1"/></linearGradient><linearGradient id="linearGradient2239"><stop style="stop-color:#00f;stop-opacity:1" id="stop2241" offset="0"/><stop style="stop-color:#00f;stop-opacity:.3882353" id="stop2243" offset="1"/></linearGradient><linearGradient id="linearGradient2245" x1="-1.149" x2="19.976" y1="13.836" y2="13.836" gradientUnits="userSpaceOnUse" xlink:href="#linearGradient2239"/><linearGradient id="linearGradient2302" x1="-1" x2="4" y1="13.5" y2="13.5" gradientUnits="userSpaceOnUse" xlink:href="#linearGradient2296"/><linearGradient id="linearGradient2312" x1=".983" x2="5.626" y1="27.044" y2="27.044" gradientUnits="userSpaceOnUse" xlink:href="#linearGradient2306"/><linearGradient id="linearGradient2326" x1="-1" x2="4" y1="13.5" y2="13.5" gradientUnits="userSpaceOnUse" xlink:href="#linearGradient2296"/><linearGradient id="linearGradient2328" x1=".983" x2="5.626" y1="27.044" y2="27.044" gradientUnits="userSpaceOnUse" xlink:href="#linearGradient2306"/></defs><metadata id="metadata2286"/><g id="layer1"><path style="fill:url(#linearGradient2245);fill-opacity:1" id="path2190" d="M 19.975765 13.836195 A 10.562407 8.4410868 0 1 1 -1.1490479,13.836195 A 10.562407 8.4410868 0 1 1 19.975765 13.836195 z" transform="matrix(0.852079,0,0,1.047537,1.532564,8.348425)"/><g id="g2320" transform="matrix(1.034197,0.726807,-0.726807,1.034197,29.79931,-2.059698)"><rect id="rect2294" width="5" height="17" x="-1" y="5" style="fill:url(#linearGradient2326);fill-opacity:1;stroke:none;stroke-width:1;stroke-miterlimit:4;stroke-dasharray:none;stroke-dashoffset:0;stroke-opacity:1"/><path id="path2304" d="M 0.9827651,25.033603 L 3.30422,25.033603 L 5.6256748,25.033603 L 4.4649474,27.044042 L 3.30422,29.054481 L 2.1434925,27.044042 L 0.9827651,25.033603 z" transform="matrix(1.076911,0,0,1.492209,-2.05835,-15.35535)" style="fill:url(#linearGradient2328);fill-opacity:1;stroke:none;stroke-width:1;stroke-miterlimit:4;stroke-dasharray:none;stroke-dashoffset:0;stroke-opacity:1"/><path id="path2314" d="M 0.9827651,25.033603 L 3.30422,25.033603 L 5.6256748,25.033603 L 4.4649474,27.044042 L 3.30422,29.054481 L 2.1434925,27.044042 L 0.9827651,25.033603 z" transform="matrix(0.337504,0,0,0.497399,0.401313,13.54831)" style="fill:#000;fill-opacity:1;stroke:none;stroke-width:1;stroke-miterlimit:4;stroke-dasharray:none;stroke-dashoffset:0;stroke-opacity:1"/><path id="path2318" d="M -0.98233569,7.4862603 A 2.5451424,2.5451424 0 0 1 4.1079491,7.4862604 L 1.5628067,7.4862604 z" transform="matrix(0.982263,0,0,1,-3.50877e-2,-2.48626)" style="fill:#c44a03;fill-opacity:1;stroke:none;stroke-width:1;stroke-miterlimit:4;stroke-dasharray:none;stroke-dashoffset:0;stroke-opacity:1"/></g></g></svg>