<svg xmlns="http://www.w3.org/2000/svg" xmlns:cc="http://web.resource.org/cc/" xmlns:svg="http://www.w3.org/2000/svg" id="svg2238" width="32" height="32"><metadata id="metadata2243"/><g id="layer1"><path style="fill:red;fill-opacity:1;fill-rule:evenodd;stroke:#000;stroke-width:1px;stroke-linecap:butt;stroke-linejoin:miter;stroke-opacity:1" id="path1315" d="M 21.611383 17.622179 A 10.091266 10.091266 0 1 1 1.4288521,17.622179 A 10.091266 10.091266 0 1 1 21.611383 17.622179 z" transform="matrix(0.991383,0,0,0.991383,-0.92085,2.967054e-2)"/><path style="fill:#fff;fill-opacity:1;fill-rule:evenodd;stroke:#000;stroke-width:1px;stroke-linecap:butt;stroke-linejoin:miter;stroke-opacity:1" id="path1317" d="M 21.611383 17.622179 A 10.091266 10.091266 0 1 1 1.4288521,17.622179 A 10.091266 10.091266 0 1 1 21.611383 17.622179 z" transform="matrix(0.991383,0,0,0.991383,10.07915,2.966954e-2)"/><path style="fill:#fff;fill-opacity:.98870057;fill-rule:evenodd;stroke:#000;stroke-width:1px;stroke-linecap:butt;stroke-linejoin:miter;stroke-opacity:1" id="path1319" d="M 16,9.0812485 C 13.282516,10.870472 11.500001,13.930368 11.5,17.424998 C 11.5,20.919628 13.282516,24.010775 16,25.799998 C 18.717484,24.010775 20.499999,20.919628 20.5,17.424998 C 20.5,13.930368 18.717484,10.870472 16,9.0812485 z"/></g></svg>