<svg xmlns="http://www.w3.org/2000/svg" xmlns:cc="http://web.resource.org/cc/" xmlns:svg="http://www.w3.org/2000/svg" id="svg2220" width="32" height="32"><metadata id="metadata2225"/><g id="layer1"><path style="fill:none;fill-opacity:.75;fill-rule:evenodd;stroke:#ff00ed;stroke-width:1px;stroke-linecap:butt;stroke-linejoin:miter;stroke-opacity:1" id="path2237" d="M 18.841118,5.5207015 C 18.841118,5.5207015 18.694978,12.776868 16.472102,16.797862 C 14.226182,20.860542 8.463103,23.931704 8.463103,23.931704"/><path style="fill:none;fill-opacity:.75;fill-rule:evenodd;stroke:#000;stroke-width:1px;stroke-linecap:butt;stroke-linejoin:miter;stroke-opacity:1" id="path2233" d="M 8.3925417,23.750736 C 8.3925417,23.750736 8.5096291,16.494043 10.716389,12.464181 C 12.946025,8.3925417 18.696762,5.2983312 18.696762,5.2983312"/><path style="fill:none;fill-opacity:.75;fill-rule:evenodd;stroke:#ff00ed;stroke-width:1;stroke-linecap:butt;stroke-linejoin:miter;stroke-opacity:1;stroke-miterlimit:4;stroke-dasharray:none;stroke-dashoffset:0" id="path2235" d="M 19,5.5534838 C 19,5.5534838 23.362325,8.9998393 24.839058,13.446516 C 26.468702,18.35363 26,25 26,25"/><path style="fill:red;fill-opacity:1" id="path2202" d="M 19.975765 13.836195 A 10.562407 8.4410868 0 1 1 -1.1490479,13.836195 A 10.562407 8.4410868 0 1 1 19.975765 13.836195 z" transform="matrix(0.337272,0,0,0.414639,5.262734,17.76297)"/><path style="fill:#00f;fill-opacity:1" id="path2229" d="M 19.975765 13.836195 A 10.562407 8.4410868 0 1 1 -1.1490479,13.836195 A 10.562407 8.4410868 0 1 1 19.975765 13.836195 z" transform="matrix(0.337272,0,0,0.414639,15.38754,-0.237022)"/><path style="fill:#0f0;fill-opacity:1" id="path2231" d="M 19.975765 13.836195 A 10.562407 8.4410868 0 1 1 -1.1490479,13.836195 A 10.562407 8.4410868 0 1 1 19.975765 13.836195 z" transform="matrix(0.337272,0,0,0.414639,22.81238,18.76298)"/></g></svg>