<svg xmlns="http://www.w3.org/2000/svg" xmlns:cc="http://web.resource.org/cc/" xmlns:svg="http://www.w3.org/2000/svg" id="svg2330" width="32" height="32"><metadata id="metadata2335"/><g id="layer1"><path style="fill:red;fill-opacity:1" id="path2202" d="M 19.975765 13.836195 A 10.562407 8.4410868 0 1 1 -1.1490479,13.836195 A 10.562407 8.4410868 0 1 1 19.975765 13.836195 z" transform="matrix(0.337272,0,0,0.414639,6.262734,3.76297)"/><path style="fill:#00f;fill-opacity:1" id="path2229" d="M 19.975765 13.836195 A 10.562407 8.4410868 0 1 1 -1.1490479,13.836195 A 10.562407 8.4410868 0 1 1 19.975765 13.836195 z" transform="matrix(0.337272,0,0,0.414639,19.38754,7.335108)"/><path style="fill:#0f0;fill-opacity:1" id="path2231" d="M 19.975765 13.836195 A 10.562407 8.4410868 0 1 1 -1.1490479,13.836195 A 10.562407 8.4410868 0 1 1 19.975765 13.836195 z" transform="matrix(0.337272,0,0,0.414639,10.26273,17.76297)"/><rect style="fill:none;fill-opacity:1;stroke:#000;stroke-width:1;stroke-miterlimit:4;stroke-dasharray:1.99999989,.99999994;stroke-dashoffset:0;stroke-opacity:1" id="rect2341" width="25.586" height="16" x="2.957" y="2"/></g></svg>