<svg xmlns="http://www.w3.org/2000/svg" xmlns:cc="http://web.resource.org/cc/" xmlns:svg="http://www.w3.org/2000/svg" id="svg5247" width="32" height="32"><defs id="defs5249"><marker id="Arrow2Lend" orient="auto" refX="0" refY="0" style="overflow:visible"><path id="path5168" d="M 8.7185878,4.0337352 L -2.2072895,0.016013256 L 8.7185884,-4.0017078 C 6.9730900,-1.6296469 6.9831476,1.6157441 8.7185878,4.0337352 z" transform="scale(1.1) rotate(180) translate(-5,0)" style="font-size:12;fill-rule:evenodd;stroke-width:.625;stroke-linejoin:round"/></marker></defs><metadata id="metadata5252"/><g id="layer1"><path style="fill:none;fill-opacity:.75;fill-rule:evenodd;stroke:#000;stroke-width:.26071042px;stroke-linecap:butt;stroke-linejoin:miter;marker-end:url(#Arrow2Lend);stroke-opacity:1" id="path5237" d="M 16.887989,6.1517278 C 16.719563,6.1400114 14.025269,10.391751 14.025269,10.391751"/><path style="fill:none;fill-opacity:.75;fill-rule:evenodd;stroke:#000;stroke-width:.23169813px;stroke-linecap:butt;stroke-linejoin:miter;marker-end:url(#Arrow2Lend);stroke-opacity:1" id="path5239" d="M 9.3577846,17.470261 C 9.1869186,17.505324 7.3044916,21.347688 7.3044916,21.347688"/><path style="fill:none;fill-opacity:.75;fill-rule:evenodd;stroke:#000;stroke-width:.21507274px;stroke-linecap:butt;stroke-linejoin:miter;marker-end:url(#Arrow2Lend);stroke-opacity:1" id="path5241" d="M 12.827813,17.461948 C 12.76132,17.60815 14.671312,21.060805 14.671312,21.060805"/><path style="fill:none;fill-opacity:.75;fill-rule:evenodd;stroke:#000;stroke-width:.19168536px;stroke-linecap:butt;stroke-linejoin:miter;marker-end:url(#Arrow2Lend);stroke-opacity:1" id="path5243" d="M 28.128169,18.095843 C 27.989957,18.168671 27.982037,21.097164 27.982037,21.097164"/><path style="fill:none;fill-opacity:.75;fill-rule:evenodd;stroke:#000;stroke-width:.26533318px;stroke-linecap:butt;stroke-linejoin:miter;marker-end:url(#Arrow2Lend);stroke-opacity:1" id="path5245" d="M 21.52919,6.1488045 C 21.500262,6.3698745 24.47697,10.392294 24.47697,10.392294"/><path style="fill:red;fill-opacity:1" id="path2202" d="M 19.975765 13.836195 A 10.562407 8.4410868 0 1 1 -1.1490479,13.836195 A 10.562407 8.4410868 0 1 1 19.975765 13.836195 z" transform="matrix(0.337272,0,0,0.414639,7.762736,9.11739)"/><path style="fill:#00f;fill-opacity:1" id="path2229" d="M 19.975765 13.836195 A 10.562407 8.4410868 0 1 1 -1.1490479,13.836195 A 10.562407 8.4410868 0 1 1 19.975765 13.836195 z" transform="matrix(0.337272,0,0,0.414639,1.887546,20.11739)"/><path style="fill:#0f0;fill-opacity:1" id="path2231" d="M 19.975765 13.836195 A 10.562407 8.4410868 0 1 1 -1.1490479,13.836195 A 10.562407 8.4410868 0 1 1 19.975765 13.836195 z" transform="matrix(0.337272,0,0,0.414639,16.26273,-2.237022)"/><path style="fill:red;fill-opacity:1" id="path5227" d="M 19.975765 13.836195 A 10.562407 8.4410868 0 1 1 -1.1490479,13.836195 A 10.562407 8.4410868 0 1 1 19.975765 13.836195 z" transform="matrix(0.337272,0,0,0.414639,24.76273,9.11739)"/><path style="fill:#00f;fill-opacity:1" id="path5229" d="M 19.975765 13.836195 A 10.562407 8.4410868 0 1 1 -1.1490479,13.836195 A 10.562407 8.4410868 0 1 1 19.975765 13.836195 z" transform="matrix(0.337272,0,0,0.414639,13.32513,20.11738)"/><path style="fill:#00f;fill-opacity:1" id="path5231" d="M 19.975765 13.836195 A 10.562407 8.4410868 0 1 1 -1.1490479,13.836195 A 10.562407 8.4410868 0 1 1 19.975765 13.836195 z" transform="matrix(0.337272,0,0,0.414639,24.76273,20.11738)"/><rect style="fill:none;fill-opacity:1;stroke:#000;stroke-width:1.04978335;stroke-miterlimit:4;stroke-dasharray:2.09956652,1.04978325;stroke-dashoffset:0;stroke-opacity:1" id="rect2341" width="19.812" height="22.772" x=".801" y="8.525"/></g></svg>