<svg xmlns="http://www.w3.org/2000/svg" xmlns:cc="http://web.resource.org/cc/" xmlns:svg="http://www.w3.org/2000/svg" id="svg2224" width="32" height="32"><metadata id="metadata2229"/><g id="layer1"><path style="fill:red;fill-opacity:1;fill-rule:evenodd;stroke:#000;stroke-width:1px;stroke-linecap:butt;stroke-linejoin:miter;stroke-opacity:1" id="path1315" d="M 21.611383 17.622179 A 10.091266 10.091266 0 1 1 1.4288521,17.622179 A 10.091266 10.091266 0 1 1 21.611383 17.622179 z" transform="matrix(0.991383,0,0,0.991383,-0.920845,2.967203e-2)"/><path style="fill:#0f0;fill-opacity:1;fill-rule:evenodd;stroke:#000;stroke-width:1px;stroke-linecap:butt;stroke-linejoin:miter;stroke-opacity:1" id="path1317" d="M 21.611383 17.622179 A 10.091266 10.091266 0 1 1 1.4288521,17.622179 A 10.091266 10.091266 0 1 1 21.611383 17.622179 z" transform="matrix(0.991383,0,0,0.991383,10.07915,2.967203e-2)"/><path style="fill:#fff;fill-opacity:1;fill-rule:evenodd;stroke:#000;stroke-width:1px;stroke-linecap:butt;stroke-linejoin:miter;stroke-opacity:1" id="path1319" d="M 16.000002,9.0812534 C 13.282518,10.870476 11.500003,13.930373 11.500002,17.425003 C 11.500002,20.919633 13.282518,24.01078 16.000002,25.800003 C 18.717486,24.01078 20.500001,20.919633 20.500002,17.425003 C 20.500002,13.930373 18.717486,10.870476 16.000002,9.0812534 z"/></g></svg>