<svg xmlns="http://www.w3.org/2000/svg" xmlns:cc="http://web.resource.org/cc/" xmlns:svg="http://www.w3.org/2000/svg" xmlns:xlink="http://www.w3.org/1999/xlink" id="svg1307" width="32" height="32"><defs id="defs1309"><linearGradient id="linearGradient2216"><stop style="stop-color:#ffedd0;stop-opacity:1" id="stop2218" offset="0"/><stop style="stop-color:#ff9c00;stop-opacity:1" id="stop2220" offset="1"/></linearGradient><linearGradient id="linearGradient2206"><stop style="stop-color:#001c2e;stop-opacity:1" id="stop2208" offset="0"/><stop style="stop-color:#737373;stop-opacity:1" id="stop2210" offset="1"/></linearGradient><linearGradient id="linearGradient2192"><stop style="stop-color:#fff;stop-opacity:1" id="stop2194" offset="0"/><stop style="stop-color:#72c5f2;stop-opacity:1" id="stop2196" offset="1"/></linearGradient><radialGradient id="radialGradient2202" cx="9.699" cy="16.637" r="9.829" fx="9.699" fy="16.637" gradientTransform="matrix(-0.258819,0.965926,-1.043174,-0.279518,29.33171,5.044977)" gradientUnits="userSpaceOnUse" xlink:href="#linearGradient2192"/><linearGradient id="linearGradient2212" x1="20.144" x2="23.213" y1="24.955" y2="22.366" gradientTransform="translate(0.5,-1.7174e-2)" gradientUnits="userSpaceOnUse" xlink:href="#linearGradient2206"/><radialGradient id="radialGradient2222" cx="10.518" cy="12.621" r="5" fx="10.518" fy="12.621" gradientTransform="matrix(0.269048,1.192832,-1.10828,0.249977,21.61989,-3.16238)" gradientUnits="userSpaceOnUse" xlink:href="#linearGradient2216"/></defs><metadata id="metadata1312"/><g id="layer1"><path style="fill:url(#radialGradient2202);fill-opacity:1;stroke:#020202;stroke-width:1.44;stroke-linecap:round;stroke-miterlimit:4;stroke-dasharray:none;stroke-dashoffset:0;stroke-opacity:1" id="path1317" d="M 21.432777 13.24632 A 9.1089306 9.1089306 0 1 1 3.2149162,13.24632 A 9.1089306 9.1089306 0 1 1 21.432777 13.24632 z" transform="translate(-0.602777,3.261082e-2)"/><path style="fill:url(#linearGradient2212);fill-opacity:1;fill-rule:evenodd;stroke:#000;stroke-width:1px;stroke-linecap:butt;stroke-linejoin:miter;stroke-opacity:1" id="path2204" d="M 16.5,20.982826 L 19.5,17.982826 L 27.5,25.982826 L 27.5,28.5 L 24.5,28.5 L 16.5,20.982826 z"/><path style="fill:url(#radialGradient2222);fill-opacity:1;fill-rule:evenodd;stroke:#000;stroke-width:1.00000012px;stroke-linecap:butt;stroke-linejoin:miter;stroke-opacity:1" id="path2214" d="M 9.8920379,7.9536315 L 13.196019,7.9536315 L 13.196019,11.892038 L 16.5,11.892038 L 16.5,14.641572 L 13.196019,14.641572 L 13.196019,18.5 L 9.8920379,18.5 L 9.8920379,14.543221 L 6.5880569,14.543221 L 6.5880569,11.892038 L 9.8920379,11.892038 L 9.8920379,7.9536315 z"/></g></svg>